#tb 0: 1/1000
0,          0,          0,        0,    69888, 479d07bb96905ad7d5f0ec3ee12b41ba
0,         33,         33,        0,    69888, 4b6555aaed8e5a45879773f1bf87962e
0,         66,         66,        0,    69888, c5f42cb796dd7b6622957016ca6b502f
0,        100,        100,        0,    69888, f06c954483560866fbff10bae7ba0785
0,        133,        133,        0,    69888, af83aff39999852310395fe241ccb49b
0,        166,        166,        0,    69888, 108377d6f30ceba6f2377330af2da38f
0,        200,        200,        0,    69888, e81e6e0b37a7b92368ede9cab124567c
0,        233,        233,        0,    69888, 59dbe51caaed8e6e825c78c5901fb22c
0,        266,        266,        0,    69888, 24686123ea14c8d1a9b447733df0aaab
0,        300,        300,        0,    69888, ce2035c49237c8076f8dac0d3f61848e
